<?xml version="1.0" standalone="no"?>
<!DOCTYPE svg PUBLIC "-//W3C//DTD SVG 20010904//EN"
 "http://www.w3.org/TR/2001/REC-SVG-20010904/DTD/svg10.dtd">
<svg version="1.0" xmlns="http://www.w3.org/2000/svg"
 width="1024.000000pt" height="828.000000pt" viewBox="0 0 1024.000000 828.000000"
 preserveAspectRatio="xMidYMid meet">
<metadata>
Created by potrace 1.16, written by Peter Selinger 2001-2019
</metadata>
<g transform="translate(0.000000,828.000000) scale(0.100000,-0.100000)"
fill="#000000" stroke="none">
<path d="M3004 5976 c-85 -27 -185 -118 -218 -198 -35 -83 -32 -218 7 -279 11
-19 21 -36 22 -39 2 -11 29 -55 59 -95 37 -52 37 -51 267 -380 221 -315 249
-357 249 -370 0 -5 -51 -36 -113 -67 -149 -76 -248 -142 -341 -229 -109 -102
-189 -225 -214 -329 -18 -76 -24 -230 -12 -325 6 -49 13 -110 16 -135 13 -121
78 -319 150 -461 98 -193 240 -360 419 -494 354 -266 858 -405 1472 -405 330
0 735 52 784 101 26 26 24 61 -6 89 l-25 24 -93 -17 c-229 -42 -307 -49 -575
-54 -421 -8 -673 22 -987 118 -106 33 -296 118 -380 172 -243 155 -423 361
-527 607 -31 73 -78 214 -78 234 0 11 16 6 36 -12 139 -125 263 -203 461 -288
424 -181 937 -266 1518 -251 203 6 232 8 255 25 31 24 37 62 13 91 -18 21 -21
22 -403 25 -463 4 -586 17 -918 97 -562 137 -947 399 -991 677 -21 131 21 251
129 366 97 103 202 176 378 261 86 43 168 82 182 89 21 10 25 19 23 53 -1 35
-21 69 -140 240 -208 296 -209 298 -308 438 -171 242 -204 293 -215 336 -46
168 137 323 295 250 76 -35 71 -27 343 -516 55 -99 113 -205 130 -235 35 -64
120 -218 151 -273 12 -21 30 -50 40 -65 10 -15 30 -46 45 -69 30 -49 32 -50
156 -27 197 35 441 54 704 54 382 0 648 -30 968 -111 64 -16 130 -29 146 -29
55 0 83 68 43 104 -43 39 -363 111 -646 145 -323 39 -782 35 -1080 -9 -77 -12
-156 -23 -175 -26 -33 -5 -36 -3 -54 38 -11 24 -54 104 -96 178 -42 74 -118
212 -170 305 -51 94 -104 190 -118 215 -30 54 -114 206 -151 274 -37 69 -104
134 -170 164 -67 31 -190 40 -257 18z"/>
<path d="M3085 5655 c-32 -31 -31 -56 1 -94 43 -51 107 -36 120 27 5 26 1 36
-24 62 -37 36 -65 38 -97 5z"/>
<path d="M6244 4768 c-19 -16 -24 -28 -22 -52 4 -40 52 -66 126 -66 l52 0 0
-50 c0 -43 -3 -50 -22 -54 -39 -8 -101 -18 -140 -22 -55 -6 -223 -62 -293 -97
-345 -173 -585 -498 -651 -881 -29 -165 -7 -433 46 -566 61 -153 78 -189 133
-272 67 -104 206 -248 307 -319 477 -338 1140 -275 1543 146 330 344 422 845
237 1289 -94 226 -293 447 -515 572 -99 56 -292 119 -410 134 -49 6 -94 15
-98 19 -5 5 -7 30 -5 57 l3 49 70 6 c84 6 101 13 109 44 8 33 -2 53 -35 70
-22 12 -68 15 -219 14 -174 -1 -193 -3 -216 -21z m528 -403 c221 -75 392 -192
520 -354 183 -233 260 -527 213 -817 -66 -408 -349 -724 -760 -850 -84 -26
-102 -28 -275 -28 -164 -1 -195 2 -270 22 -290 80 -539 285 -675 557 -66 132
-93 231 -104 385 -13 165 1 275 51 420 76 218 217 402 400 523 105 69 162 98
266 132 114 38 161 43 364 42 172 0 180 -1 270 -32z"/>
<path d="M6652 3646 c-247 -248 -253 -255 -250 -291 4 -43 40 -72 79 -62 13 4
138 120 277 260 270 271 277 280 229 325 -52 49 -61 43 -335 -232z"/>
<path d="M5422 4328 c-59 -62 -112 -127 -112 -139 0 -25 23 -61 44 -69 40 -15
63 -1 136 83 77 88 87 121 48 157 -35 32 -61 25 -116 -32z"/>
<path d="M4510 4239 c-502 -33 -944 -169 -1245 -384 -106 -76 -129 -112 -97
-154 32 -43 61 -38 138 21 255 195 668 335 1119 378 130 12 389 17 567 10 114
-4 128 -3 147 14 27 24 27 68 1 91 -16 14 -45 20 -123 26 -124 10 -351 9 -507
-2z"/>
</g>
</svg>
